<svg width="25" height="16" viewBox="0 0 25 16" fill="none" xmlns="http://www.w3.org/2000/svg">
<path d="M12.7299 0.720894C13.6581 0.720894 14.5484 1.08964 15.2047 1.74602C15.8611 2.4024 16.2299 3.29264 16.2299 4.22089C16.2299 5.14915 15.8611 6.03939 15.2047 6.69577C14.5484 7.35214 13.6581 7.72089 12.7299 7.72089C11.8016 7.72089 10.9114 7.35214 10.255 6.69577C9.59861 6.03939 9.22986 5.14915 9.22986 4.22089C9.22986 3.29264 9.59861 2.4024 10.255 1.74602C10.9114 1.08964 11.8016 0.720894 12.7299 0.720894ZM5.72986 3.22089C6.28986 3.22089 6.80986 3.37089 7.25986 3.64089C7.10986 5.07089 7.52986 6.49089 8.38986 7.60089C7.88986 8.56089 6.88986 9.22089 5.72986 9.22089C4.93421 9.22089 4.17115 8.90482 3.60854 8.34221C3.04593 7.77961 2.72986 7.01654 2.72986 6.22089C2.72986 5.42524 3.04593 4.66218 3.60854 4.09957C4.17115 3.53696 4.93421 3.22089 5.72986 3.22089ZM19.7299 3.22089C20.5255 3.22089 21.2886 3.53696 21.8512 4.09957C22.4138 4.66218 22.7299 5.42524 22.7299 6.22089C22.7299 7.01654 22.4138 7.77961 21.8512 8.34221C21.2886 8.90482 20.5255 9.22089 19.7299 9.22089C18.5699 9.22089 17.5699 8.56089 17.0699 7.60089C17.9299 6.49089 18.3499 5.07089 18.1999 3.64089C18.6499 3.37089 19.1699 3.22089 19.7299 3.22089ZM6.22986 13.4709C6.22986 11.4009 9.13986 9.72089 12.7299 9.72089C16.3199 9.72089 19.2299 11.4009 19.2299 13.4709V15.2209H6.22986V13.4709ZM0.729858 15.2209V13.7209C0.729858 12.3309 2.61986 11.1609 5.17986 10.8209C4.58986 11.5009 4.22986 12.4409 4.22986 13.4709V15.2209H0.729858ZM24.7299 15.2209H21.2299V13.4709C21.2299 12.4409 20.8699 11.5009 20.2799 10.8209C22.8399 11.1609 24.7299 12.3309 24.7299 13.7209V15.2209Z" fill="#CD8050"/>
</svg>
