<svg width="24" height="24" viewBox="0 0 24 24" fill="none" xmlns="http://www.w3.org/2000/svg">
<path d="M5 19.5C5 19.7761 4.77614 20 4.5 20H2.5C2.22386 20 2 19.7761 2 19.5V10.5C2 10.2239 2.22386 10 2.5 10H4.5C4.77614 10 5 10.2239 5 10.5V19.5ZM20 10H15L16.55 6.89C16.8649 6.27145 17.0196 5.58381 17 4.89V4.5C17 3.67157 16.3284 3 15.5 3H15.36C15.1469 3.00158 14.9582 3.13808 14.89 3.34L14.29 5.12C14.1038 5.67547 13.6835 6.12139 13.14 6.34L12.71 6.51C11.9251 6.83174 11.2606 7.39127 10.81 8.11L9.59 10.11C9.22377 10.696 8.581 11.0514 7.89 11.05H7V19.05H7.59C8.48702 19.0373 9.35291 19.3786 10 20C10.639 20.6396 11.5059 20.9993 12.41 21H18.65C19.466 20.9967 20.1981 20.4981 20.5 19.74L21.57 17.07C21.8526 16.3604 21.9985 15.6038 22 14.84V12C22 10.8954 21.1046 10 20 10Z" fill="#CD8050"/>
</svg>
