<svg width="20" height="18" viewBox="0 0 20 18" fill="none" xmlns="http://www.w3.org/2000/svg">
<path d="M17 18C17.2652 18 17.5196 17.8946 17.7071 17.7071C17.8946 17.5196 18 17.2652 18 17V11H19.5C19.6326 11 19.7598 10.9473 19.8536 10.8536C19.9473 10.7598 20 10.6326 20 10.5V8.41C19.9989 8.14766 19.8947 7.89626 19.71 7.71L12.29 0.29C12.1037 0.105256 11.8523 0.00110462 11.59 0H8.41C8.14766 0.00110462 7.89626 0.105256 7.71 0.29L0.29 7.71C0.105256 7.89626 0.00110462 8.14766 0 8.41V10.5C0 10.6326 0.0526785 10.7598 0.146447 10.8536C0.240215 10.9473 0.367392 11 0.5 11H2V17C2 17.2652 2.10536 17.5196 2.29289 17.7071C2.48043 17.8946 2.73478 18 3 18H17ZM4 16V9.5C4 9.36739 3.94732 9.24021 3.85355 9.14645C3.75979 9.05268 3.63261 9 3.5 9H2.05C2.08254 8.82623 2.16609 8.66609 2.29 8.54L8.83 2H11.17L17.71 8.54C17.8523 8.65932 17.9537 8.82017 18 9H16.5C16.3674 9 16.2402 9.05268 16.1464 9.14645C16.0527 9.24021 16 9.36739 16 9.5V16H4ZM12 8C12 8.39556 11.8827 8.78224 11.6629 9.11114C11.4432 9.44004 11.1308 9.69638 10.7654 9.84776C10.3999 9.99913 9.99778 10.0387 9.60982 9.96157C9.22186 9.8844 8.86549 9.69392 8.58579 9.41421C8.30608 9.13451 8.1156 8.77814 8.03843 8.39018C7.96126 8.00222 8.00087 7.60009 8.15224 7.23463C8.30362 6.86918 8.55996 6.55682 8.88886 6.33706C9.21776 6.1173 9.60444 6 10 6C10.5304 6 11.0391 6.21071 11.4142 6.58579C11.7893 6.96086 12 7.46957 12 8ZM6.05 13.28L6.78 11.83C6.90434 11.5809 7.09554 11.3714 7.33219 11.2248C7.56885 11.0782 7.84162 11.0004 8.12 11H11.88C12.1584 11.0004 12.4312 11.0782 12.6678 11.2248C12.9045 11.3714 13.0957 11.5809 13.22 11.83L14 13.28C14.0374 13.3563 14.0547 13.4409 14.0503 13.5257C14.046 13.6106 14.02 13.6929 13.975 13.765C13.93 13.8371 13.8673 13.8964 13.7929 13.9376C13.7186 13.9787 13.635 14.0002 13.55 14H6.55C6.4609 14.0094 6.37091 13.9947 6.28946 13.9573C6.208 13.92 6.13806 13.8615 6.08696 13.7879C6.03585 13.7144 6.00546 13.6284 5.99896 13.539C5.99246 13.4497 6.01009 13.3602 6.05 13.28Z" fill="#CD8050"/>
</svg>
