<svg width="24" height="24" viewBox="0 0 24 24" fill="none" xmlns="http://www.w3.org/2000/svg">
<path d="M8 17.5C8 17.7761 7.77614 18 7.5 18H6.5C6.22386 18 6 17.7761 6 17.5V6.50001C6 6.22386 6.22386 6.00001 6.5 6.00001H7.5C7.77614 6.00001 8 6.22386 8 6.50001V17.5ZM18 6.57001C17.9972 6.30397 17.8573 6.0582 17.63 5.92001L17.51 5.86001C17.2671 5.70088 16.9529 5.70088 16.71 5.86001L9.34 11.07C9.14074 11.2094 9.02146 11.4368 9.02 11.68V12.3C9.02146 12.5432 9.14074 12.7706 9.34 12.91L16.71 18.09C16.9529 18.2491 17.2671 18.2491 17.51 18.09L17.63 18.03C17.8588 17.8932 17.9992 17.6466 18 17.38V6.57001Z" fill="#CD8050"/>
</svg>
