<svg width="24" height="24" viewBox="0 0 24 24" fill="none" xmlns="http://www.w3.org/2000/svg">
<path d="M22.51 12.87L18.91 5.13C18.5763 4.43933 17.877 4.00033 17.11 4H15.5C15.2239 4 15 4.22386 15 4.5V5.5C15 5.77614 15.2239 6 15.5 6H17.11L19 10.11C16.8787 9.65427 14.7084 10.636 13.65 12.53C13.1641 12.1949 12.5902 12.0105 12 12C11.4013 12.0058 10.8187 12.1942 10.33 12.54C9.27472 10.6529 7.1167 9.669 5 10.11L6.89 6H8.5C8.77614 6 9 5.77614 9 5.5V4.5C9 4.22386 8.77614 4 8.5 4H6.89C6.11117 3.99626 5.401 4.44499 5.07 5.15L1.47 12.89C1.15917 13.5499 0.99864 14.2706 1 15C1 17.7614 3.23858 20 6 20C8.76143 20 11 17.7614 11 15C11 14.4477 11.4477 14 12 14C12.5523 14 13 14.4477 13 15C13 17.7614 15.2386 20 18 20C20.7614 20 23 17.7614 23 15C22.9981 14.2623 22.8306 13.5344 22.51 12.87ZM6 18C4.34315 18 3 16.6569 3 15C3 13.3431 4.34315 12 6 12C7.65686 12 9 13.3431 9 15C9 16.6569 7.65686 18 6 18ZM18 18C16.3431 18 15 16.6569 15 15C15 13.3431 16.3431 12 18 12C19.6569 12 21 13.3431 21 15C21 16.6569 19.6569 18 18 18Z" fill="#CD8050"/>
</svg>
