<svg width="24" height="24" viewBox="0 0 24 24" fill="none" xmlns="http://www.w3.org/2000/svg">
<path d="M8.00152 8C8.00152 5.79086 9.79305 4 12.003 4C14.213 4 16.0045 5.79086 16.0045 8C16.0045 10.2091 14.213 12 12.003 12C10.9418 12 9.92396 11.5786 9.17353 10.8284C8.4231 10.0783 8.00152 9.06087 8.00152 8ZM19.896 18.55L18.4555 15.66C17.9465 14.6408 16.904 13.9978 15.7645 14H8.24161C7.10207 13.9978 6.05958 14.6408 5.55059 15.66L4.11004 18.55C3.95402 18.8595 3.96945 19.2277 4.15082 19.5231C4.3322 19.8185 4.65366 19.999 5.00038 20H19.0057C19.3524 19.999 19.6739 19.8185 19.8552 19.5231C20.0366 19.2277 20.052 18.8595 19.896 18.55Z" fill="#CD8050"/>
</svg>
